<mxfile host="app.diagrams.net" agent="Mozilla/5.0 (Macintosh; Intel Mac OS X 10_15_7) AppleWebKit/605.1.15 (KHTML, like Gecko) Version/17.6 Safari/605.1.15" version="26.0.4">
  <diagram name="Page-1" id="Vfbv8_XQsopFTOaTHB_-">
    <mxGraphModel dx="788" dy="664" grid="1" gridSize="10" guides="1" tooltips="1" connect="1" arrows="1" fold="1" page="1" pageScale="1" pageWidth="827" pageHeight="1169" math="0" shadow="0">
      <root>
        <mxCell id="0" />
        <mxCell id="1" parent="0" />
        <mxCell id="79t-oLrMbPS3YPwEA1fc-1" value="" style="sketch=0;points=[[0,0,0],[0.25,0,0],[0.5,0,0],[0.75,0,0],[1,0,0],[0,1,0],[0.25,1,0],[0.5,1,0],[0.75,1,0],[1,1,0],[0,0.25,0],[0,0.5,0],[0,0.75,0],[1,0.25,0],[1,0.5,0],[1,0.75,0]];outlineConnect=0;fontColor=#232F3E;fillColor=#ED7100;strokeColor=#ffffff;dashed=0;verticalLabelPosition=bottom;verticalAlign=top;align=center;html=1;fontSize=12;fontStyle=0;aspect=fixed;shape=mxgraph.aws4.resourceIcon;resIcon=mxgraph.aws4.ec2;" vertex="1" parent="1">
          <mxGeometry x="260" y="290" width="78" height="78" as="geometry" />
        </mxCell>
        <mxCell id="79t-oLrMbPS3YPwEA1fc-2" value="" style="sketch=0;points=[[0,0,0],[0.25,0,0],[0.5,0,0],[0.75,0,0],[1,0,0],[0,1,0],[0.25,1,0],[0.5,1,0],[0.75,1,0],[1,1,0],[0,0.25,0],[0,0.5,0],[0,0.75,0],[1,0.25,0],[1,0.5,0],[1,0.75,0]];outlineConnect=0;fontColor=#232F3E;fillColor=#ED7100;strokeColor=#ffffff;dashed=0;verticalLabelPosition=bottom;verticalAlign=top;align=center;html=1;fontSize=12;fontStyle=0;aspect=fixed;shape=mxgraph.aws4.resourceIcon;resIcon=mxgraph.aws4.ec2;" vertex="1" parent="1">
          <mxGeometry x="514" y="290" width="78" height="78" as="geometry" />
        </mxCell>
        <mxCell id="79t-oLrMbPS3YPwEA1fc-3" value="primary server" style="text;html=1;align=center;verticalAlign=middle;resizable=0;points=[];autosize=1;strokeColor=none;fillColor=none;" vertex="1" parent="1">
          <mxGeometry x="249" y="368" width="100" height="30" as="geometry" />
        </mxCell>
        <mxCell id="79t-oLrMbPS3YPwEA1fc-4" value="OCR server" style="text;html=1;align=center;verticalAlign=middle;resizable=0;points=[];autosize=1;strokeColor=none;fillColor=none;" vertex="1" parent="1">
          <mxGeometry x="508" y="368" width="90" height="30" as="geometry" />
        </mxCell>
        <mxCell id="79t-oLrMbPS3YPwEA1fc-5" value="" style="shape=actor;whiteSpace=wrap;html=1;" vertex="1" parent="1">
          <mxGeometry x="283" y="150" width="40" height="50" as="geometry" />
        </mxCell>
        <mxCell id="79t-oLrMbPS3YPwEA1fc-6" value="frontend" style="text;html=1;align=center;verticalAlign=middle;resizable=0;points=[];autosize=1;strokeColor=none;fillColor=none;" vertex="1" parent="1">
          <mxGeometry x="268" y="200" width="70" height="30" as="geometry" />
        </mxCell>
        <mxCell id="79t-oLrMbPS3YPwEA1fc-8" value="" style="sketch=0;outlineConnect=0;fontColor=#232F3E;gradientColor=none;fillColor=#C925D1;strokeColor=none;dashed=0;verticalLabelPosition=bottom;verticalAlign=top;align=center;html=1;fontSize=12;fontStyle=0;aspect=fixed;pointerEvents=1;shape=mxgraph.aws4.rds_instance;" vertex="1" parent="1">
          <mxGeometry x="264" y="460" width="78" height="78" as="geometry" />
        </mxCell>
        <mxCell id="79t-oLrMbPS3YPwEA1fc-9" value="" style="endArrow=classic;startArrow=classic;html=1;rounded=0;entryX=0.457;entryY=1.1;entryDx=0;entryDy=0;entryPerimeter=0;exitX=0.5;exitY=0;exitDx=0;exitDy=0;exitPerimeter=0;" edge="1" parent="1" source="79t-oLrMbPS3YPwEA1fc-1" target="79t-oLrMbPS3YPwEA1fc-6">
          <mxGeometry width="50" height="50" relative="1" as="geometry">
            <mxPoint x="303" y="290" as="sourcePoint" />
            <mxPoint x="430" y="300" as="targetPoint" />
          </mxGeometry>
        </mxCell>
        <mxCell id="79t-oLrMbPS3YPwEA1fc-10" value="" style="endArrow=classic;html=1;rounded=0;exitX=0;exitY=1;exitDx=0;exitDy=0;exitPerimeter=0;entryX=1;entryY=1;entryDx=0;entryDy=0;entryPerimeter=0;strokeColor=#FF0000;" edge="1" parent="1">
          <mxGeometry width="50" height="50" relative="1" as="geometry">
            <mxPoint x="514" y="362" as="sourcePoint" />
            <mxPoint x="338" y="362" as="targetPoint" />
          </mxGeometry>
        </mxCell>
        <mxCell id="79t-oLrMbPS3YPwEA1fc-11" value="" style="endArrow=classic;html=1;rounded=0;exitX=1;exitY=0.75;exitDx=0;exitDy=0;exitPerimeter=0;entryX=0;entryY=0.75;entryDx=0;entryDy=0;entryPerimeter=0;strokeColor=#FF0000;" edge="1" parent="1">
          <mxGeometry width="50" height="50" relative="1" as="geometry">
            <mxPoint x="338" y="334.5" as="sourcePoint" />
            <mxPoint x="514" y="334.5" as="targetPoint" />
          </mxGeometry>
        </mxCell>
        <mxCell id="79t-oLrMbPS3YPwEA1fc-12" value="img" style="text;html=1;align=center;verticalAlign=middle;resizable=0;points=[];autosize=1;strokeColor=none;fillColor=none;fontColor=#FF0000;labelBackgroundColor=#FFFF66;" vertex="1" parent="1">
          <mxGeometry x="400" y="319" width="40" height="30" as="geometry" />
        </mxCell>
        <mxCell id="79t-oLrMbPS3YPwEA1fc-13" value="recognized text" style="text;html=1;align=center;verticalAlign=middle;resizable=0;points=[];autosize=1;strokeColor=none;fillColor=none;fontColor=#FF0000;labelBackgroundColor=#FFFF66;" vertex="1" parent="1">
          <mxGeometry x="380" y="349" width="100" height="30" as="geometry" />
        </mxCell>
        <mxCell id="79t-oLrMbPS3YPwEA1fc-17" value="recognized item" style="text;html=1;align=center;verticalAlign=middle;resizable=0;points=[];autosize=1;strokeColor=none;fillColor=none;fontColor=#FF0000;labelBackgroundColor=#FFFF66;" vertex="1" parent="1">
          <mxGeometry x="375" y="290" width="110" height="30" as="geometry" />
        </mxCell>
        <mxCell id="79t-oLrMbPS3YPwEA1fc-18" value="" style="endArrow=classic;html=1;rounded=0;exitX=0;exitY=1;exitDx=0;exitDy=0;exitPerimeter=0;entryX=1;entryY=1;entryDx=0;entryDy=0;entryPerimeter=0;strokeColor=#FF0000;" edge="1" parent="1">
          <mxGeometry width="50" height="50" relative="1" as="geometry">
            <mxPoint x="514" y="310" as="sourcePoint" />
            <mxPoint x="338" y="310" as="targetPoint" />
          </mxGeometry>
        </mxCell>
        <mxCell id="79t-oLrMbPS3YPwEA1fc-20" value="" style="endArrow=classic;startArrow=classic;html=1;rounded=0;entryX=0.53;entryY=0.967;entryDx=0;entryDy=0;entryPerimeter=0;" edge="1" parent="1" source="79t-oLrMbPS3YPwEA1fc-8" target="79t-oLrMbPS3YPwEA1fc-3">
          <mxGeometry width="50" height="50" relative="1" as="geometry">
            <mxPoint x="380" y="350" as="sourcePoint" />
            <mxPoint x="430" y="300" as="targetPoint" />
          </mxGeometry>
        </mxCell>
      </root>
    </mxGraphModel>
  </diagram>
</mxfile>
